<?xml version="1.0" encoding="utf-8"?>
<!-- Generator: Adobe Illustrator 22.0.0, SVG Export Plug-In . SVG Version: 6.00 Build 0)  -->
<svg version="1.1" id="Layer_1" xmlns="http://www.w3.org/2000/svg" xmlns:xlink="http://www.w3.org/1999/xlink" x="0px" y="0px"
	 viewBox="0 0 100 100" style="enable-background:new 0 0 100 100;" xml:space="preserve">
<style type="text/css">
	.st0{clip-path:url(#SVGID_2_);}
	.st1{fill:#F44336;}
	.st2{opacity:0.3;clip-path:url(#SVGID_2_);}
	.st3{fill:#FFEB3B;}
</style>
<g>
	<defs>
		<path id="SVGID_1_" d="M88,100H12c-6.6,0-12-5.4-12-12V12C0,5.4,5.4,0,12,0h76c6.6,0,12,5.4,12,12v76C100,94.6,94.6,100,88,100z"
			/>
	</defs>
	<clipPath id="SVGID_2_">
		<use xlink:href="#SVGID_1_"  style="overflow:visible;"/>
	</clipPath>
	<g class="st0">
		<path class="st1" d="M88,100H12c-6.6,0-12-5.4-12-12V12C0,5.4,5.4,0,12,0h76c6.6,0,12,5.4,12,12v76C100,94.6,94.6,100,88,100z"/>
	</g>
	<polygon class="st2" points="100,0 -0.5,100 100,100 	"/>
</g>
<path class="st3" d="M49.5,22.9c14.9,0,27.1,12.1,27.1,27.1S64.4,77.1,49.5,77.1S22.4,64.9,22.4,50S34.6,22.9,49.5,22.9z M49.5,17.5
	C31.6,17.5,17,32.1,17,50s14.6,32.5,32.5,32.5S82,67.9,82,50S67.4,17.5,49.5,17.5z M49.5,25.6C36,25.6,25.1,36.5,25.1,50
	S36,74.4,49.5,74.4S73.9,63.5,73.9,50S63,25.6,49.5,25.6z M52.2,63.4v2.9h-2.7v-2.7c-2.8,0-5.7-0.7-8.1-2l1.2-4.5
	c2.6,1,6,2.1,8.7,1.5c3.1-0.7,3.8-3.9,0.3-5.4C49.1,52,41.4,51,41.4,44.4c0-3.7,2.8-7,8.1-7.7v-2.9h2.7v2.8c2,0.1,4.2,0.4,6.6,1.1
	l-1,4.5c-2.1-0.7-4.4-1.4-6.6-1.3c-4,0.2-4.4,3.7-1.6,5.2c4.6,2.2,10.7,3.8,10.7,9.6C60.3,60.3,56.7,62.8,52.2,63.4z"/>
</svg>
